<?xml version="1.0" encoding="UTF-8" standalone="no"?>
<!-- Generator: Adobe Illustrator 19.1.0, SVG Export Plug-In . SVG Version: 6.00 Build 0)  -->

<svg
   xmlns:dc="http://purl.org/dc/elements/1.1/"
   xmlns:cc="http://creativecommons.org/ns#"
   xmlns:rdf="http://www.w3.org/1999/02/22-rdf-syntax-ns#"
   xmlns:svg="http://www.w3.org/2000/svg"
   xmlns="http://www.w3.org/2000/svg"
   xmlns:sodipodi="http://sodipodi.sourceforge.net/DTD/sodipodi-0.dtd"
   xmlns:inkscape="http://www.inkscape.org/namespaces/inkscape"
   version="1.1"
   x="0px"
   y="0px"
   width="256"
   height="256"
   viewBox="0 0 256 256"
   enable-background="new 0 0 24 24"
   xml:space="preserve"
   id="svg12"
   sodipodi:docname="myApp.svg"
   inkscape:version="0.92.3 (2405546, 2018-03-11)"
   inkscape:export-filename="/home/daniel/Dropbox/Documents/school/UNAM/2018-2/MP/02/SandwichControl/icons/myApp.png"
   inkscape:export-xdpi="96"
   inkscape:export-ydpi="96"><metadata
   id="metadata18"><rdf:RDF><cc:Work
       rdf:about=""><dc:format>image/svg+xml</dc:format><dc:type
         rdf:resource="http://purl.org/dc/dcmitype/StillImage" /><dc:title></dc:title></cc:Work></rdf:RDF></metadata><defs
   id="defs16" /><sodipodi:namedview
   pagecolor="#ffffff"
   bordercolor="#666666"
   borderopacity="1"
   objecttolerance="10"
   gridtolerance="10"
   guidetolerance="10"
   inkscape:pageopacity="0"
   inkscape:pageshadow="2"
   inkscape:window-width="1877"
   inkscape:window-height="1026"
   id="namedview14"
   showgrid="false"
   inkscape:zoom="2.2870485"
   inkscape:cx="19.441366"
   inkscape:cy="98.276614"
   inkscape:window-x="1366"
   inkscape:window-y="28"
   inkscape:window-maximized="1"
   inkscape:current-layer="svg12" />
<circle
   style="fill:#ff9955;stroke-width:1.10468745"
   id="path3724"
   cx="128"
   cy="128"
   r="128" /><g
   id="Bounding_Boxes"
   transform="translate(0,232)">
	<path
   d="M 0,0 H 24 V 24 H 0 Z"
   id="path2"
   inkscape:connector-curvature="0"
   style="fill:none" />
</g>
<g
   id="Rounded"
   transform="matrix(7.8574826,0,0,7.8574826,33.710209,33.710209)"
   style="fill:#ffffff">
	<g
   id="g9"
   style="fill:#ffffff">
		<path
   d="m 16,6 v 6 c 0,1.1 0.9,2 2,2 h 1 v 7 c 0,0.55 0.45,1 1,1 v 0 c 0.55,0 1,-0.45 1,-1 V 3.13 C 21,2.48 20.39,2 19.76,2.15 17.6,2.68 16,4.51 16,6 Z"
   id="path5"
   inkscape:connector-curvature="0"
   style="fill:#ffffff" />
		<path
   d="M 11,9 H 9 V 3 C 9,2.45 8.55,2 8,2 V 2 C 7.45,2 7,2.45 7,3 V 9 H 5 V 3 C 5,2.45 4.55,2 4,2 V 2 C 3.45,2 3,2.45 3,3 v 6 c 0,2.21 1.79,4 4,4 v 8 c 0,0.55 0.45,1 1,1 v 0 c 0.55,0 1,-0.45 1,-1 v -8 c 2.21,0 4,-1.79 4,-4 V 3 C 13,2.45 12.55,2 12,2 v 0 c -0.55,0 -1,0.45 -1,1 z"
   id="path7"
   inkscape:connector-curvature="0"
   style="fill:#ffffff" />
	</g>
</g>
</svg>